<svg xmlns="http://www.w3.org/2000/svg" width="24" height="24" viewBox="244 244 24 24">
    <path
        d="M259 247L264.957 246.99L264.968 252.987L268 253L267.976 243.974L259 244L259 247ZM253 265L246.963 264.984L246.968 259L243.967 259.005L243.962 267.994L253 268L253 265ZM264.949 259L264.948 264.965L259 265L259 268L267.965 267.966L268 259L264.949 259ZM246.952 253.012L246.984 246.952L252.987 246.949L253 244L243.942 243.996L243.967 253.004L246.952 253.012Z"
        fill="#6dbb1f" />
    <path
        d="M256 247.992C253.199 247.992 250.662 250.263 250.662 253.065C250.662 255.867 252.976 259.211 256 264.008C259.024 259.211 261.338 255.867 261.338 253.065C261.338 250.263 258.802 247.992 256 247.992ZM256 255.333C254.894 255.333 253.998 254.437 253.998 253.331C253.998 252.225 254.894 251.329 256 251.329C257.106 251.329 258.002 252.225 258.002 253.331C258.002 254.437 257.106 255.333 256 255.333Z"
        fill="#34495D" />
</svg>
